<svg id="Layer_1" data-name="Layer 1" xmlns="http://www.w3.org/2000/svg" viewBox="0 0 1400 900"><defs><style>.cls-1{fill:#f5f6f8;}.cls-2{opacity:0.25;}.cls-3{fill:#2ad3ea;}.cls-4{fill:#b0c9f7;}.cls-5{fill:#d0f4b0;}.cls-6{fill:#f2deb1;}.cls-7{fill:#f2bfb1;}.cls-8{fill:#1f6be5;}.cls-9{fill:#f79c74;}.cls-10{fill:#7e2ee5;}.cls-11{fill:#f9738d;}.cls-12{fill:#f2cd19;}.cls-13{fill:#06d4ef;}.cls-14{fill:#f2d5ce;}.cls-15{fill:#b493db;}</style></defs><title>Artwork</title><rect class="cls-1" width="1400" height="900"/><g class="cls-2"><path class="cls-3" d="M1401,302.14h.94V900H1401c-165.1,0-298.92-133.83-298.92-298.91S1235.87,302.14,1401,302.14Z"/><rect class="cls-4" x="803.93" y="3.2" width="597.72" height="299.35" transform="translate(2205.59 305.75) rotate(180)"/><rect class="cls-5" x="654.22" y="452.22" width="597.72" height="299.35" transform="translate(1554.97 -351.19) rotate(90)"/><rect class="cls-6" x="504.58" width="299.35" height="299.35" transform="translate(803.93 -504.58) rotate(90)"/><polygon class="cls-7" points="1401.66 302.14 1251.98 452.72 1102.31 603.3 1102.31 302.14 1401.66 302.14"/><polygon class="cls-8" points="1102.31 901.34 1251.98 750.76 1401.66 600.18 1401.66 901.34 1102.31 901.34"/><path class="cls-9" d="M506.55,897.61h-1.89V302.1h597.42C1102.08,631,835.45,897.61,506.55,897.61Z"/><path class="cls-9" d="M501.1,599v1.88H0v-590C284,56.11,501.1,302.19,501.1,599Z"/><path class="cls-10" d="M804.31,302.11h-.94V3.64h299.42C1102.79,168.49,969.16,302.11,804.31,302.11Z"/><path class="cls-11" d="M803.85,302.57v-.95h298.47V601.05C937.47,601.05,803.85,467.41,803.85,302.57Z"/><path class="cls-12" d="M1265.85,601.21v-.43h135.81V737A135.8,135.8,0,0,1,1265.85,601.21Z"/><path class="cls-10" d="M1401.44,465h.43V600.83H1265.63A135.81,135.81,0,0,1,1401.44,465Z"/><path class="cls-12" d="M505.27,599.44h-.95V1.62h.95c165.1,0,298.92,133.83,298.92,298.91S670.37,599.44,505.27,599.44Z"/><path class="cls-12" d="M503.38,1.62h.94V599.44h-.94c-165.1,0-298.92-133.82-298.92-298.91S338.28,1.62,503.38,1.62Z"/><rect class="cls-13" x="204.46" y="301.66" width="298.86" height="299.35" transform="translate(707.78 902.67) rotate(180)"/><path class="cls-5" d="M503.75,437.43h-.43V301.62H639.56A135.8,135.8,0,0,1,503.75,437.43Z"/><path class="cls-8" d="M340.27,600.62v.43H204.46V464.8A135.81,135.81,0,0,1,340.27,600.62Z"/><path class="cls-8" d="M1265.85,1.84V1.41h135.81V137.65A135.81,135.81,0,0,1,1265.85,1.84Z"/><polygon class="cls-14" points="803.93 600.18 654.26 750.76 504.58 901.34 504.58 600.18 803.93 600.18"/><path class="cls-11" d="M503.16,601.52h.94V900H204.68C204.68,735.15,338.31,601.52,503.16,601.52Z"/><path class="cls-10" d="M205.38,600.84v.21c0,132.42-86.1,244.72-205.38,284v-568C112.12,354,194.93,455.42,204.46,577.44Q205.36,589,205.38,600.84Z"/><polygon class="cls-15" points="204.46 304.46 204.46 601.52 203.78 600.84 55.03 452.99 0 398.29 0 304.46 204.46 304.46"/></g></svg>